<?xml version="1.0" encoding="UTF-8" standalone="no"?>
<svg xmlns="http://www.w3.org/2000/svg" xmlns:dc="http://purl.org/dc/elements/1.1/" xmlns:cc="http://creativecommons.org/ns#" xmlns:rdf="http://www.w3.org/1999/02/22-rdf-syntax-ns#" width="297mm" height="210mm">
    <metadata id="metadata7">
        <rdf:RDF>
            <cc:Work rdf:about="">
                <dc:format>image/svg+xml</dc:format>
                <dc:type rdf:resource="http://purl.org/dc/dcmitype/StillImage" />
                <dc:title>Umístění znaků potřebných pro psaní HTML a CSS na typické české (s AltGr) a anglické klávesnici.</dc:title>
                <cc:license rdf:resource="http://creativecommons.org/licenses/by-sa/4.0/" />
            </cc:Work>
        </rdf:RDF>
    </metadata>
    <style>
        svg{font-family:sans-serif;}
        .l{font-size:18px;}
    </style>
    <path fill="#dcdcdc" d="m 45.654,114.487 c -2.462,0 -4.443,2.065 -4.443,4.63 l 0,41.68 c 0,2.565 1.983,4.632 4.445,4.632 l 39.99,0 c 2.463,0 4.444,-2.07 4.444,-4.634 l 0,-41.68 c 0,-2.567 -1.98,-4.632 -4.444,-4.632 l -39.99,0 z m 53.32,0 c -2.462,0 -4.443,2.065 -4.443,4.63 l 0,41.68 c 0,2.565 1.983,4.632 4.445,4.632 l 39.99,0 c 2.463,0 4.444,-2.07 4.444,-4.634 l 0,-41.68 c 0,-2.567 -1.98,-4.632 -4.444,-4.632 l -39.99,0 z m 53.32,0 c -2.462,0 -4.443,2.065 -4.443,4.63 l 0,41.68 c 0,2.565 1.983,4.632 4.444,4.632 l 39.99,0 c 2.465,0 4.446,-2.07 4.446,-4.634 l 0,-41.68 c 0,-2.567 -1.982,-4.632 -4.444,-4.632 l -39.99,0 z m 53.318,0 c -2.46,0 -4.44,2.065 -4.44,4.63 l 0,41.68 c 0,2.565 1.98,4.632 4.44,4.632 l 39.994,0 c 2.46,0 4.443,-2.07 4.443,-4.634 l 0,-41.68 c 0,-2.567 -1.983,-4.632 -4.445,-4.632 l -39.994,0 z m 53.32,0 c -2.46,0 -4.442,2.065 -4.442,4.63 l 0,41.68 c 0,2.565 1.98,4.632 4.442,4.632 l 39.99,0 c 2.463,0 4.445,-2.07 4.445,-4.634 l 0,-41.68 c 0,-2.567 -1.982,-4.632 -4.443,-4.632 l -39.99,0 z m 53.32,0 c -2.46,0 -4.442,2.065 -4.442,4.63 l 0,41.68 c 0,2.565 1.98,4.632 4.443,4.632 l 39.993,0 c 2.46,0 4.442,-2.07 4.442,-4.634 l 0,-41.68 c 0,-2.567 -1.98,-4.632 -4.442,-4.632 l -39.994,0 z m 53.32,0 c -2.46,0 -4.442,2.065 -4.442,4.63 l 0,41.68 c 0,2.565 1.98,4.632 4.442,4.632 l 39.99,0 c 2.462,0 4.443,-2.07 4.443,-4.634 l 0,-41.68 c 0,-2.567 -1.98,-4.632 -4.443,-4.632 l -39.99,0 z m 53.323,0 c -2.462,0 -4.446,2.065 -4.446,4.63 l 0,41.68 c 0,2.565 1.982,4.632 4.444,4.632 l 39.988,0 c 2.462,0 4.443,-2.07 4.443,-4.634 l 0,-41.68 c 0,-2.567 -1.98,-4.632 -4.443,-4.632 l -39.988,0 z m 53.32,0 c -2.462,0 -4.446,2.065 -4.446,4.63 l 0,41.68 c 0,2.565 1.982,4.632 4.444,4.632 l 39.988,0 c 2.462,0 4.443,-2.07 4.443,-4.634 l 0,-41.68 c 0,-2.567 -1.98,-4.632 -4.443,-4.632 l -39.988,0 z m 53.32,0 c -2.462,0 -4.445,2.065 -4.445,4.63 l 0,41.68 c 0,2.565 1.983,4.632 4.444,4.632 l 39.99,0 c 2.46,0 4.442,-2.07 4.442,-4.634 l 0,-41.68 c 0,-2.567 -1.98,-4.632 -4.443,-4.632 l -39.99,0 z m 53.32,0 c -2.462,0 -4.443,2.065 -4.443,4.63 l 0,41.68 c 0,2.565 1.98,4.632 4.443,4.632 l 39.99,0 c 2.46,0 4.442,-2.07 4.442,-4.634 l 0,-41.68 c 0,-2.567 -1.98,-4.632 -4.443,-4.632 l -39.99,0 z m 53.32,0 c -2.462,0 -4.444,2.065 -4.444,4.63 l 0,41.68 c 0,2.565 1.983,4.632 4.445,4.632 l 39.99,0 c 2.46,0 4.446,-2.07 4.446,-4.634 l 0,-41.68 c 0,-2.567 -1.985,-4.632 -4.446,-4.632 l -39.99,0 z m 53.32,0 c -2.463,0 -4.444,2.065 -4.444,4.63 l 0,41.68 c 0,2.565 1.983,4.632 4.445,4.632 l 39.988,0 c 2.46,0 4.444,-2.07 4.444,-4.634 l 0,-41.68 c 0,-2.567 -1.983,-4.632 -4.446,-4.632 l -39.985,0 z m 68.874,13.892 24.431,0 0,23.154 -24.1,0 -11.445,-11.816 11.114,-11.342 z m -15.557,-13.894 c -2.462,0 -4.443,2.065 -4.443,4.63 l 0,41.68 c 0,2.567 1.982,4.632 4.444,4.632 l 93.31,0 c 2.462,0 4.443,-2.066 4.443,-4.63 l 0,-41.682 c 0,-2.566 -1.98,-4.63 -4.443,-4.63 l -93.31,0 z M 116.747,170.06 c -2.46,0 -4.442,2.065 -4.442,4.632 l 0,41.683 c 0,2.565 1.98,4.63 4.443,4.63 l 39.99,0 c 2.462,0 4.443,-2.065 4.443,-4.63 l 0,-41.685 c 0,-2.565 -1.98,-4.63 -4.442,-4.63 l -39.99,0 z m 53.32,0 c -2.46,0 -4.442,2.065 -4.442,4.632 l 0,41.683 c 0,2.565 1.98,4.63 4.44,4.63 l 39.99,0 c 2.46,0 4.447,-2.065 4.447,-4.63 l 0,-41.685 c 0,-2.565 -1.986,-4.63 -4.447,-4.63 l -39.99,0 z m 53.32,0 c -2.46,0 -4.442,2.065 -4.442,4.632 l 0,41.683 c 0,2.565 1.98,4.63 4.442,4.63 l 39.99,0 c 2.46,0 4.446,-2.065 4.446,-4.63 l 0,-41.685 c 0,-2.565 -1.986,-4.63 -4.447,-4.63 l -39.99,0 z m 53.32,0 c -2.46,0 -4.443,2.065 -4.443,4.632 l 0,41.683 c 0,2.565 1.98,4.63 4.443,4.63 l 39.99,0 c 2.462,0 4.445,-2.065 4.445,-4.63 l 0,-41.685 c 0,-2.565 -1.98,-4.63 -4.444,-4.63 l -39.99,0 z m 53.32,0 c -2.462,0 -4.443,2.065 -4.443,4.632 l 0,41.683 c 0,2.565 1.98,4.63 4.443,4.63 l 39.99,0 c 2.462,0 4.444,-2.065 4.444,-4.63 l 0,-41.685 c 0,-2.565 -1.98,-4.63 -4.44,-4.63 l -39.991,0 z m 53.32,0 c -2.462,0 -4.443,2.065 -4.443,4.632 l 0,41.683 c 0,2.565 1.98,4.63 4.443,4.63 l 39.99,0 c 2.46,0 4.442,-2.065 4.442,-4.63 l 0,-41.685 c 0,-2.565 -1.983,-4.63 -4.445,-4.63 l -39.99,0 z m 53.32,0 c -2.462,0 -4.443,2.065 -4.443,4.632 l 0,41.683 c 0,2.565 1.98,4.63 4.443,4.63 l 39.99,0 c 2.462,0 4.444,-2.065 4.444,-4.63 l 0,-41.685 c 0,-2.565 -1.98,-4.63 -4.44,-4.63 l -39.99,0 z m 53.32,0 c -2.462,0 -4.443,2.065 -4.443,4.632 l 0,41.683 c 0,2.565 1.98,4.63 4.442,4.63 l 39.99,0 c 2.462,0 4.443,-2.065 4.443,-4.63 l 0,-41.685 c 0,-2.565 -1.983,-4.63 -4.445,-4.63 l -39.992,0 z m 53.32,0 c -2.462,0 -4.443,2.065 -4.443,4.632 l 0,41.683 c 0,2.565 1.98,4.63 4.442,4.63 l 39.99,0 c 2.462,0 4.443,-2.065 4.443,-4.63 l 0,-41.685 c 0,-2.565 -1.983,-4.63 -4.444,-4.63 l -39.99,0 z m 53.32,0 c -2.462,0 -4.444,2.065 -4.444,4.632 l 0,41.683 c 0,2.565 1.98,4.63 4.443,4.63 l 39.99,0 c 2.46,0 4.443,-2.065 4.443,-4.63 l 0,-41.685 c 0,-2.565 -1.983,-4.63 -4.445,-4.63 l -39.992,0 z m 53.32,0 c -2.46,0 -4.444,2.065 -4.444,4.632 l 0,41.683 c 0,2.565 1.984,4.63 4.446,4.63 l 39.986,0 c 2.46,0 4.442,-2.065 4.442,-4.63 l 0,-41.685 c 0,-2.565 -1.982,-4.63 -4.443,-4.63 l -39.99,0 z m 53.32,0 c -2.46,0 -4.446,2.065 -4.446,4.632 l 0,41.683 c 0,2.565 1.987,4.63 4.45,4.63 l 39.99,0 c 2.46,0 4.44,-2.065 4.44,-4.63 l 0,-41.685 c 0,-2.565 -1.98,-4.63 -4.443,-4.63 l -39.99,0 z m -657.612,18.526 26.66,0 -8.886,9.262 0,-4.63 -17.777,0 0,-4.632 z m 8.888,-13.894 0,4.632 17.773,0 0,4.634 -26.663,0 8.888,-9.265 z m -8.888,-4.63 c -2.462,0 -4.443,2.065 -4.443,4.63 l 0,41.684 c 0,2.565 1.982,4.63 4.444,4.63 l 57.765,0 c 2.46,0 4.443,-2.065 4.443,-4.63 l 0,-41.686 c 0,-2.565 -1.98,-4.63 -4.443,-4.63 l -57.768,0 z m 764.25,55.57 13.333,0 0,32.42 -26.66,0 0,9.263 -15.37,-16.074 15.37,-16.343 0,9.262 13.328,0 0,-18.527 z M 756.588,170.06 c -2.46,0 -4.442,2.065 -4.442,4.632 l 0,41.683 c 0,2.565 1.98,4.63 4.443,4.63 l 8.885,0 c 2.56,-0.008 4.447,2.065 4.447,4.63 l 0,46.312 c 0,2.567 1.982,4.632 4.443,4.632 l 57.76,0 c 2.464,0 4.445,-2.067 4.445,-4.634 l 0,-97.255 c 0,-2.565 -1.98,-4.63 -4.443,-4.63 l -75.536,0 z M 134.52,225.636 c -2.462,0 -4.443,2.065 -4.443,4.63 l 0,41.683 c 0,2.564 1.98,4.63 4.443,4.63 l 39.992,0 c 2.462,0 4.443,-2.066 4.443,-4.63 l 0,-41.68 c 0,-2.57 -1.98,-4.634 -4.445,-4.634 l -39.99,0 z m 53.32,0 c -2.46,0 -4.445,2.065 -4.445,4.63 l 0,41.683 c 0,2.564 1.985,4.63 4.446,4.63 l 39.99,0 c 2.46,0 4.445,-2.066 4.445,-4.63 l 0,-41.68 c 0,-2.57 -1.98,-4.634 -4.444,-4.634 l -39.99,0 z m 53.322,0 c -2.462,0 -4.446,2.065 -4.446,4.63 l 0,41.683 c 0,2.564 1.984,4.63 4.446,4.63 l 39.986,0 c 2.46,0 4.442,-2.066 4.442,-4.63 l 0,-41.68 c 0,-2.57 -1.98,-4.634 -4.442,-4.634 l -39.986,0 z m 53.32,0 c -2.462,0 -4.444,2.065 -4.444,4.63 l 0,41.683 c 0,2.564 1.98,4.63 4.443,4.63 l 39.99,0 c 2.46,0 4.443,-2.066 4.443,-4.63 l 0,-41.68 c 0,-2.57 -1.98,-4.634 -4.442,-4.634 l -39.99,0 z m 53.32,0 c -2.463,0 -4.444,2.065 -4.444,4.63 l 0,41.683 c 0,2.564 1.98,4.63 4.443,4.63 l 39.988,0 c 2.463,0 4.447,-2.066 4.447,-4.63 l 0,-41.68 c 0,-2.57 -1.984,-4.634 -4.447,-4.634 l -39.989,0 z m 53.32,0 c -2.463,0 -4.444,2.065 -4.444,4.63 l 0,41.683 c 0,2.564 1.98,4.63 4.443,4.63 l 39.99,0 c 2.46,0 4.447,-2.066 4.447,-4.63 l 0,-41.68 c 0,-2.57 -1.985,-4.634 -4.447,-4.634 l -39.99,0 z m 53.32,0 c -2.463,0 -4.444,2.065 -4.444,4.63 l 0,41.683 c 0,2.564 1.98,4.63 4.443,4.63 l 39.988,0 c 2.463,0 4.446,-2.066 4.446,-4.63 l 0,-41.68 c 0,-2.57 -1.983,-4.634 -4.446,-4.634 l -39.989,0 z m 53.318,0 c -2.46,0 -4.442,2.065 -4.442,4.63 l 0,41.683 c 0,2.564 1.98,4.63 4.442,4.63 l 39.99,0 c 2.463,0 4.445,-2.066 4.445,-4.63 l 0,-41.68 c 0,-2.57 -1.982,-4.634 -4.444,-4.634 l -39.99,0 z m 53.32,0 c -2.46,0 -4.442,2.065 -4.442,4.63 l 0,41.683 c 0,2.564 1.98,4.63 4.442,4.63 l 39.99,0 c 2.463,0 4.445,-2.066 4.445,-4.63 l 0,-41.68 c 0,-2.57 -1.982,-4.634 -4.444,-4.634 l -39.99,0 z m 53.32,0 c -2.46,0 -4.443,2.065 -4.443,4.63 l 0,41.683 c 0,2.564 1.98,4.63 4.443,4.63 l 39.99,0 c 2.462,0 4.444,-2.066 4.444,-4.63 l 0,-41.68 c 0,-2.57 -1.98,-4.634 -4.443,-4.634 l -39.991,0 z m 53.32,0 c -2.462,0 -4.443,2.065 -4.443,4.63 l 0,41.683 c 0,2.564 1.98,4.63 4.444,4.63 l 39.993,0 c 2.46,0 4.442,-2.066 4.442,-4.63 l 0,-41.68 c 0,-2.57 -1.98,-4.634 -4.443,-4.634 l -39.99,0 z m 133.3,271.012 13.33,0 0,32.42 -26.66,0 0,9.263 -15.37,-16.074 15.37,-16.343 0,9.262 13.33,0 0,-18.527 z m -44.433,-23.155 c -2.46,0 -4.442,2.065 -4.442,4.628 l 0,46.314 c 0,2.565 -1.98,4.634 -4.444,4.634 l -26.66,0 c -2.456,-0.01 -4.442,2.065 -4.442,4.63 l 0,41.68 c 0,2.568 1.98,4.633 4.443,4.633 l 111.084,0 c 2.463,0 4.444,-2.064 4.444,-4.63 l 0,-97.26 c 0,-2.564 -1.98,-4.63 -4.443,-4.63 l -75.537,0 z m -622.065,55.574 c -2.462,0 -4.446,2.065 -4.446,4.63 l 0,41.68 c 0,2.565 1.984,4.635 4.446,4.635 l 39.988,0 c 2.463,0 4.444,-2.07 4.444,-4.635 l 0,-41.68 c 0,-2.565 -1.98,-4.63 -4.445,-4.63 l -39.99,0 z m 53.32,0 c -2.462,0 -4.443,2.065 -4.443,4.63 l 0,41.68 c 0,2.565 1.98,4.635 4.44,4.635 l 39.99,0 c 2.46,0 4.443,-2.07 4.443,-4.635 l 0,-41.68 c 0,-2.565 -1.98,-4.63 -4.444,-4.63 l -39.99,0 z m 53.32,0 c -2.462,0 -4.443,2.065 -4.443,4.63 l 0,41.68 c 0,2.565 1.98,4.635 4.44,4.635 l 39.987,0 c 2.46,0 4.447,-2.07 4.447,-4.635 l 0,-41.68 c 0,-2.565 -1.986,-4.63 -4.447,-4.63 l -39.986,0 z m 53.32,0 c -2.462,0 -4.444,2.065 -4.444,4.63 l 0,41.68 c 0,2.565 1.98,4.635 4.443,4.635 l 39.99,0 c 2.46,0 4.448,-2.07 4.448,-4.635 l 0,-41.68 c 0,-2.565 -1.986,-4.63 -4.447,-4.63 l -39.99,0 z m 53.32,0 c -2.463,0 -4.444,2.065 -4.444,4.63 l 0,41.68 c 0,2.565 1.98,4.635 4.443,4.635 l 39.988,0 c 2.463,0 4.447,-2.07 4.447,-4.635 l 0,-41.68 c 0,-2.565 -1.984,-4.63 -4.447,-4.63 l -39.989,0 z m 53.32,0 c -2.463,0 -4.444,2.065 -4.444,4.63 l 0,41.68 c 0,2.565 1.98,4.635 4.443,4.635 l 39.993,0 c 2.46,0 4.442,-2.07 4.442,-4.635 l 0,-41.68 c 0,-2.565 -1.982,-4.63 -4.443,-4.63 l -39.99,0 z m 53.32,0 c -2.463,0 -4.444,2.065 -4.444,4.63 l 0,41.68 c 0,2.565 1.98,4.635 4.443,4.635 l 39.99,0 c 2.463,0 4.444,-2.07 4.444,-4.635 l 0,-41.68 c 0,-2.565 -1.98,-4.63 -4.443,-4.63 l -39.987,0 z m 53.318,0 c -2.46,0 -4.442,2.065 -4.442,4.63 l 0,41.68 c 0,2.565 1.98,4.635 4.442,4.635 l 39.99,0 c 2.463,0 4.445,-2.07 4.445,-4.635 l 0,-41.68 c 0,-2.565 -1.982,-4.63 -4.444,-4.63 l -39.99,0 z m 53.32,0 c -2.46,0 -4.442,2.065 -4.442,4.63 l 0,41.68 c 0,2.565 1.98,4.635 4.442,4.635 l 39.99,0 c 2.463,0 4.445,-2.07 4.445,-4.635 l 0,-41.68 c 0,-2.565 -1.982,-4.63 -4.444,-4.63 l -39.99,0 z m 53.32,0 c -2.46,0 -4.443,2.065 -4.443,4.63 l 0,41.68 c 0,2.565 1.98,4.635 4.443,4.635 l 39.99,0 c 2.462,0 4.445,-2.07 4.445,-4.635 l 0,-41.68 c 0,-2.565 -1.982,-4.63 -4.444,-4.63 l -39.991,0 z m 53.32,0 c -2.462,0 -4.443,2.065 -4.443,4.63 l 0,41.68 c 0,2.565 1.98,4.635 4.444,4.635 l 39.993,0 c 2.46,0 4.442,-2.07 4.442,-4.635 l 0,-41.68 c 0,-2.565 -1.98,-4.63 -4.443,-4.63 l -39.99,0 z M 152.293,584.64 c -2.46,0 -4.442,2.066 -4.442,4.632 l 0,41.68 c 0,2.565 1.983,4.635 4.444,4.635 l 39.992,0 c 2.463,0 4.444,-2.07 4.444,-4.635 l 0,-41.68 c 0,-2.565 -1.982,-4.63 -4.444,-4.63 l -39.99,0 z m 53.32,0 c -2.46,0 -4.442,2.066 -4.442,4.632 l 0,41.68 c 0,2.565 1.983,4.635 4.444,4.635 l 39.993,0 c 2.46,0 4.443,-2.07 4.443,-4.635 l 0,-41.68 c 0,-2.565 -1.982,-4.63 -4.444,-4.63 l -39.994,0 z m 53.32,0 c -2.46,0 -4.443,2.066 -4.443,4.632 l 0,41.68 c 0,2.565 1.98,4.635 4.442,4.635 l 39.99,0 c 2.463,0 4.445,-2.07 4.445,-4.635 l 0,-41.68 c 0,-2.565 -1.982,-4.63 -4.443,-4.63 l -39.99,0 z m 53.322,0 c -2.46,0 -4.446,2.066 -4.446,4.632 l 0,41.68 c 0,2.565 1.983,4.635 4.444,4.635 l 39.99,0 c 2.46,0 4.442,-2.07 4.442,-4.635 l 0,-41.68 c 0,-2.565 -1.982,-4.63 -4.443,-4.63 l -39.99,0 z m 53.32,0 c -2.462,0 -4.446,2.066 -4.446,4.632 l 0,41.68 c 0,2.565 1.982,4.635 4.444,4.635 l 39.988,0 c 2.462,0 4.444,-2.07 4.444,-4.635 l 0,-41.68 c 0,-2.565 -1.982,-4.63 -4.444,-4.63 l -39.988,0 z m 53.32,0 c -2.462,0 -4.443,2.066 -4.443,4.632 l 0,41.68 c 0,2.565 1.98,4.635 4.443,4.635 l 39.988,0 c 2.462,0 4.443,-2.07 4.443,-4.635 l 0,-41.68 c 0,-2.565 -1.98,-4.63 -4.443,-4.63 l -39.988,0 z m 53.32,0 c -2.462,0 -4.443,2.066 -4.443,4.632 l 0,41.68 c 0,2.565 1.98,4.635 4.444,4.635 l 39.988,0 c 2.462,0 4.444,-2.07 4.444,-4.635 l 0,-41.68 c 0,-2.565 -1.982,-4.63 -4.444,-4.63 l -39.988,0 z m 53.32,0 c -2.462,0 -4.443,2.066 -4.443,4.632 l 0,41.68 c 0,2.565 1.98,4.635 4.442,4.635 l 39.99,0 c 2.46,0 4.446,-2.07 4.446,-4.635 l 0,-41.68 c 0,-2.565 -1.985,-4.63 -4.447,-4.63 l -39.99,0 z m 53.32,0 c -2.462,0 -4.443,2.066 -4.443,4.632 l 0,41.68 c 0,2.565 1.98,4.635 4.443,4.635 l 39.99,0 c 2.46,0 4.446,-2.07 4.446,-4.635 l 0,-41.68 c 0,-2.565 -1.984,-4.63 -4.445,-4.63 l -39.99,0 z m 53.32,0 c -2.462,0 -4.444,2.066 -4.444,4.632 l 0,41.68 c 0,2.565 1.983,4.635 4.445,4.635 l 39.99,0 c 2.462,0 4.445,-2.07 4.445,-4.635 l 0,-41.68 c 0,-2.565 -1.983,-4.63 -4.445,-4.63 l -39.99,0 z m -586.52,0 c -2.463,0 -4.444,2.066 -4.444,4.632 l 0,41.682 c 0,2.565 1.983,4.63 4.445,4.63 l 93.312,0 c 2.46,0 4.442,-2.063 4.442,-4.63 l 0,-41.682 c 0,-2.565 -1.98,-4.63 -4.444,-4.63 l -93.313,0 z m 19.866,4.632 15.683,18.523 -8.887,0 0,18.527 -13.33,0 0,-18.527 -8.887,0 15.42,-18.523 z M 46.177,529.067 c -2.752,0 -4.964,2.065 -4.964,4.63 l 0,41.683 c 0,2.566 2.213,4.63 4.965,4.63 l 74.494,0 c 2.75,0 4.964,-2.064 4.964,-4.63 l 0,-41.683 c 0,-2.565 -2.213,-4.63 -4.964,-4.63 l -74.498,0 z m 64.563,4.63 4.963,0 c 2.75,0 4.967,2.065 4.967,4.63 l 0,4.636 c 0,2.564 -2.217,4.63 -4.968,4.63 l -4.964,0 c -2.752,0 -4.964,-2.065 -4.964,-4.63 l 0,-4.636 c 0,-2.565 2.212,-4.63 4.964,-4.63 z M 45.655,473.494 c -2.462,0 -4.443,2.065 -4.443,4.63 l 0,41.68 c 0,2.567 1.982,4.632 4.444,4.632 l 57.765,0 c 2.46,0 4.443,-2.065 4.443,-4.63 l 0,-41.683 c 0,-2.565 -1.98,-4.63 -4.443,-4.63 l -57.768,0 z m 0,18.524 26.66,0 -8.886,9.26 0,-4.63 -17.777,0 0,-4.63 z m 8.888,-13.895 0,4.63 17.773,0 0,4.635 -26.663,0 8.888,-9.265 z m 650.817,111.15 15.683,18.522 -8.89,0 0,18.527 -13.328,0 0,-18.527 -8.887,0 15.42,-18.523 z m -19.867,-4.632 c -2.46,0 -4.442,2.067 -4.442,4.633 l 0,41.682 c 0,2.565 1.983,4.63 4.445,4.63 l 146.63,0 c 2.462,0 4.443,-2.063 4.443,-4.63 l 0,-41.682 c 0,-2.565 -1.98,-4.63 -4.443,-4.63 l -146.63,0 z M 721.04,225.636 c -2.462,0 -4.443,2.065 -4.443,4.63 l 0,41.683 c 0,2.564 1.98,4.63 4.443,4.63 l 39.99,0 c 2.462,0 4.443,-2.066 4.443,-4.63 l 0,-41.68 c 0,-2.57 -1.98,-4.634 -4.442,-4.634 l -39.99,0 z m -610.302,4.63 4.964,0 c 2.75,0 4.967,2.065 4.967,4.63 l 0,4.635 c 0,2.567 -2.218,4.63 -4.97,4.63 l -4.963,0 c -2.752,0 -4.967,-2.063 -4.967,-4.63 l 0,-4.631 c 0,-2.565 2.216,-4.63 4.968,-4.63 z m -64.563,-4.63 c -2.752,0 -4.964,2.064 -4.964,4.63 l 0,41.68 c 0,2.568 2.214,4.633 4.966,4.633 l 74.494,0 c 2.75,0 4.963,-2.067 4.963,-4.63 l 0,-41.684 c 0,-2.566 -2.213,-4.63 -4.964,-4.63 l -74.497,0 z m 52.8,55.574 c -2.463,0 -4.444,2.065 -4.444,4.63 l 0,41.683 c 0,2.566 1.983,4.63 4.445,4.63 l 39.99,0 c 2.463,0 4.444,-2.064 4.444,-4.63 l 0,-41.683 c 0,-2.565 -1.98,-4.63 -4.444,-4.63 l -39.99,0 z m 53.318,0 c -2.46,0 -4.442,2.065 -4.442,4.63 l 0,41.683 c 0,2.566 1.983,4.63 4.444,4.63 l 39.99,0 c 2.465,0 4.446,-2.064 4.446,-4.63 l 0,-41.683 c 0,-2.565 -1.982,-4.63 -4.444,-4.63 l -39.99,0 z m 53.32,0 c -2.46,0 -4.442,2.065 -4.442,4.63 l 0,41.683 c 0,2.566 1.983,4.63 4.444,4.63 l 39.993,0 c 2.46,0 4.443,-2.064 4.443,-4.63 l 0,-41.683 c 0,-2.565 -1.982,-4.63 -4.444,-4.63 l -39.994,0 z m 53.32,0 c -2.46,0 -4.443,2.065 -4.443,4.63 l 0,41.683 c 0,2.566 1.98,4.63 4.442,4.63 l 39.99,0 c 2.463,0 4.445,-2.064 4.445,-4.63 l 0,-41.683 c 0,-2.565 -1.982,-4.63 -4.443,-4.63 l -39.99,0 z m 53.32,0 c -2.462,0 -4.443,2.065 -4.443,4.63 l 0,41.683 c 0,2.566 1.98,4.63 4.443,4.63 l 39.993,0 c 2.46,0 4.442,-2.064 4.442,-4.63 l 0,-41.683 c 0,-2.565 -1.98,-4.63 -4.442,-4.63 l -39.994,0 z m 53.32,0 c -2.462,0 -4.443,2.065 -4.443,4.63 l 0,41.683 c 0,2.566 1.98,4.63 4.442,4.63 l 39.99,0 c 2.462,0 4.443,-2.064 4.443,-4.63 l 0,-41.683 c 0,-2.565 -1.98,-4.63 -4.443,-4.63 l -39.99,0 z m 53.322,0 c -2.462,0 -4.446,2.065 -4.446,4.63 l 0,41.683 c 0,2.566 1.982,4.63 4.444,4.63 l 39.988,0 c 2.462,0 4.443,-2.064 4.443,-4.63 l 0,-41.683 c 0,-2.565 -1.98,-4.63 -4.443,-4.63 l -39.988,0 z m 53.32,0 c -2.462,0 -4.446,2.065 -4.446,4.63 l 0,41.683 c 0,2.566 1.982,4.63 4.444,4.63 l 39.988,0 c 2.462,0 4.443,-2.064 4.443,-4.63 l 0,-41.683 c 0,-2.565 -1.98,-4.63 -4.443,-4.63 l -39.988,0 z m 53.32,0 c -2.462,0 -4.445,2.065 -4.445,4.63 l 0,41.683 c 0,2.566 1.983,4.63 4.444,4.63 l 39.99,0 c 2.46,0 4.442,-2.064 4.442,-4.63 l 0,-41.683 c 0,-2.565 -1.98,-4.63 -4.443,-4.63 l -39.99,0 z m 53.32,0 c -2.462,0 -4.443,2.065 -4.443,4.63 l 0,41.683 c 0,2.566 1.98,4.63 4.443,4.63 l 39.99,0 c 2.46,0 4.442,-2.064 4.442,-4.63 l 0,-41.683 c 0,-2.565 -1.98,-4.63 -4.443,-4.63 l -39.99,0 z m 53.32,0 c -2.462,0 -4.444,2.065 -4.444,4.63 l 0,41.683 c 0,2.566 1.983,4.63 4.445,4.63 l 39.99,0 c 2.46,0 4.446,-2.064 4.446,-4.63 l 0,-41.683 c 0,-2.565 -1.985,-4.63 -4.446,-4.63 l -39.99,0 z m -566.655,4.633 15.684,18.524 -8.89,0 0,18.526 -13.328,0 0,-18.526 -8.886,0 15.42,-18.524 z m -19.867,-4.634 c -2.46,0 -4.442,2.063 -4.442,4.63 l 0,41.682 c 0,2.566 1.983,4.63 4.445,4.63 l 39.99,0 c 2.463,0 4.444,-2.064 4.444,-4.63 l 0,-41.681 c 0,-2.565 -1.98,-4.63 -4.444,-4.63 l -39.99,0 z m 659.706,4.632 15.682,18.524 -8.89,0 0,18.526 -13.328,0 0,-18.526 -8.887,0 15.42,-18.524 z m -19.868,-4.634 c -2.46,0 -4.442,2.064 -4.442,4.63 l 0,41.683 c 0,2.567 1.982,4.63 4.444,4.63 l 146.63,0 c 2.462,0 4.443,-2.063 4.443,-4.63 l 0,-41.68 c 0,-2.565 -1.98,-4.63 -4.443,-4.63 l -146.63,0 z M 45.652,417.915 c -2.46,0 -4.44,2.067 -4.44,4.634 l 0,41.676 c 0,2.567 1.98,4.632 4.443,4.632 l 39.99,0 c 2.463,0 4.444,-2.066 4.444,-4.632 l 0,-41.68 c 0,-2.565 -1.98,-4.632 -4.444,-4.632 l -39.99,0 z m 53.32,0 c -2.46,0 -4.44,2.067 -4.44,4.634 l 0,41.676 c 0,2.567 1.98,4.632 4.443,4.632 l 39.99,0 c 2.463,0 4.444,-2.066 4.444,-4.632 l 0,-41.68 c 0,-2.565 -1.98,-4.632 -4.444,-4.632 l -39.99,0 z m 53.32,0 c -2.46,0 -4.44,2.067 -4.44,4.634 l 0,41.676 c 0,2.567 1.98,4.632 4.442,4.632 l 39.992,0 c 2.463,0 4.444,-2.066 4.444,-4.632 l 0,-41.68 c 0,-2.565 -1.982,-4.632 -4.444,-4.632 l -39.99,0 z m 53.32,0 c -2.46,0 -4.44,2.067 -4.44,4.634 l 0,41.676 c 0,2.567 1.98,4.632 4.442,4.632 l 39.993,0 c 2.46,0 4.443,-2.066 4.443,-4.632 l 0,-41.68 c 0,-2.565 -1.982,-4.632 -4.444,-4.632 l -39.994,0 z m 53.32,0 c -2.46,0 -4.442,2.067 -4.442,4.634 l 0,41.676 c 0,2.567 1.98,4.632 4.442,4.632 l 39.99,0 c 2.463,0 4.445,-2.066 4.445,-4.632 l 0,-41.68 c 0,-2.565 -1.982,-4.632 -4.443,-4.632 l -39.99,0 z m 53.323,0 c -2.46,0 -4.446,2.067 -4.446,4.634 l 0,41.676 c 0,2.567 1.983,4.632 4.444,4.632 l 39.99,0 c 2.46,0 4.442,-2.066 4.442,-4.632 l 0,-41.68 c 0,-2.565 -1.982,-4.632 -4.443,-4.632 l -39.99,0 z m 53.32,0 c -2.462,0 -4.446,2.067 -4.446,4.634 l 0,41.676 c 0,2.567 1.982,4.632 4.444,4.632 l 39.988,0 c 2.462,0 4.444,-2.066 4.444,-4.632 l 0,-41.68 c 0,-2.565 -1.982,-4.632 -4.444,-4.632 l -39.988,0 z m 53.32,0 c -2.462,0 -4.443,2.067 -4.443,4.634 l 0,41.676 c 0,2.567 1.98,4.632 4.443,4.632 l 39.988,0 c 2.462,0 4.443,-2.066 4.443,-4.632 l 0,-41.68 c 0,-2.565 -1.98,-4.632 -4.443,-4.632 l -39.988,0 z m 53.32,0 c -2.462,0 -4.443,2.067 -4.443,4.634 l 0,41.676 c 0,2.567 1.98,4.632 4.444,4.632 l 39.988,0 c 2.462,0 4.447,-2.066 4.447,-4.632 l 0,-41.68 c 0,-2.565 -1.983,-4.632 -4.445,-4.632 l -39.988,0 z m 53.32,0 c -2.462,0 -4.443,2.067 -4.443,4.634 l 0,41.676 c 0,2.567 1.98,4.632 4.442,4.632 l 39.99,0 c 2.46,0 4.446,-2.066 4.446,-4.632 l 0,-41.68 c 0,-2.565 -1.985,-4.632 -4.447,-4.632 l -39.99,0 z m 53.32,0 c -2.462,0 -4.443,2.067 -4.443,4.634 l 0,41.676 c 0,2.567 1.98,4.632 4.443,4.632 l 39.99,0 c 2.46,0 4.446,-2.066 4.446,-4.632 l 0,-41.68 c 0,-2.565 -1.984,-4.632 -4.445,-4.632 l -39.99,0 z m 53.32,0 c -2.462,0 -4.444,2.067 -4.444,4.634 l 0,41.676 c 0,2.567 1.983,4.632 4.445,4.632 l 39.99,0 c 2.462,0 4.445,-2.066 4.445,-4.632 l 0,-41.68 c 0,-2.565 -1.983,-4.632 -4.445,-4.632 l -39.99,0 z m 53.32,0 c -2.463,0 -4.444,2.067 -4.444,4.634 l 0,41.676 c 0,2.567 1.983,4.632 4.445,4.632 l 39.99,0 c 2.462,0 4.443,-2.066 4.443,-4.632 l 0,-41.68 c 0,-2.565 -1.98,-4.632 -4.442,-4.632 l -39.99,0 z m 53.32,0 c -2.463,0 -4.444,2.067 -4.444,4.634 l 0,41.676 c 0,2.567 1.983,4.632 4.445,4.632 l 39.99,0 c 2.462,0 4.443,-2.066 4.443,-4.632 l 0,-41.68 c 0,-2.565 -1.98,-4.632 -4.442,-4.632 l -39.99,0 z m 64.433,13.894 24.434,0 0,23.156 -24.1,0 -11.447,-11.816 11.113,-11.34 z m 28.876,-13.895 -39.99,0.002 c -2.46,0 -4.442,2.065 -4.442,4.63 l 0,41.682 c 0,2.565 1.98,4.63 4.443,4.63 l 39.99,0 c 2.463,0 4.445,-2.067 4.445,-4.633 l 0,-41.682 c 0,-2.565 -1.982,-4.63 -4.444,-4.63 z m -715.377,55.578 c -2.46,0 -4.442,2.065 -4.442,4.63 l 0,41.68 c 0,2.565 1.98,4.63 4.443,4.63 l 39.99,0 c 2.462,0 4.446,-2.065 4.446,-4.63 l 0,-41.68 c 0,-2.566 -1.984,-4.63 -4.447,-4.63 l -39.99,0 z m 53.32,0 c -2.46,0 -4.442,2.065 -4.442,4.63 l 0,41.68 c 0,2.565 1.98,4.63 4.44,4.63 l 39.992,0 c 2.463,0 4.444,-2.065 4.444,-4.63 l 0,-41.68 c 0,-2.566 -1.98,-4.63 -4.442,-4.63 l -39.99,0 z m 53.32,0 c -2.46,0 -4.442,2.065 -4.442,4.63 l 0,41.68 c 0,2.565 1.98,4.63 4.442,4.63 l 39.992,0 c 2.46,0 4.44,-2.065 4.44,-4.63 l 0,-41.68 c 0,-2.566 -1.98,-4.63 -4.442,-4.63 l -39.993,0 z m 53.32,0 c -2.46,0 -4.443,2.065 -4.443,4.63 l 0,41.68 c 0,2.565 1.98,4.63 4.443,4.63 l 39.99,0 c 2.463,0 4.445,-2.065 4.445,-4.63 l 0,-41.68 c 0,-2.566 -1.98,-4.63 -4.444,-4.63 l -39.99,0 z m 53.32,0 c -2.462,0 -4.443,2.065 -4.443,4.63 l 0,41.68 c 0,2.565 1.98,4.63 4.443,4.63 l 39.99,0 c 2.462,0 4.444,-2.065 4.444,-4.63 l 0,-41.68 c 0,-2.566 -1.98,-4.63 -4.44,-4.63 l -39.991,0 z m 53.32,0 c -2.462,0 -4.443,2.065 -4.443,4.63 l 0,41.68 c 0,2.565 1.98,4.63 4.443,4.63 l 39.99,0 c 2.46,0 4.442,-2.065 4.442,-4.63 l 0,-41.68 c 0,-2.566 -1.983,-4.63 -4.445,-4.63 l -39.99,0 z m 53.32,0 c -2.462,0 -4.443,2.065 -4.443,4.63 l 0,41.68 c 0,2.565 1.98,4.63 4.443,4.63 l 39.99,0 c 2.462,0 4.444,-2.065 4.444,-4.63 l 0,-41.68 c 0,-2.566 -1.98,-4.63 -4.44,-4.63 l -39.99,0 z m 53.32,0 c -2.462,0 -4.443,2.065 -4.443,4.63 l 0,41.68 c 0,2.565 1.98,4.63 4.442,4.63 l 39.99,0 c 2.462,0 4.443,-2.065 4.443,-4.63 l 0,-41.68 c 0,-2.566 -1.983,-4.63 -4.445,-4.63 l -39.992,0 z m 53.32,0 c -2.46,0 -4.443,2.065 -4.443,4.63 l 0,41.68 c 0,2.565 1.983,4.63 4.444,4.63 l 39.99,0 c 2.462,0 4.444,-2.065 4.444,-4.63 l 0,-41.68 c 0,-2.566 -1.982,-4.63 -4.443,-4.63 l -39.994,0 z m 53.32,0 c -2.46,0 -4.445,2.065 -4.445,4.63 l 0,41.68 c 0,2.565 1.985,4.63 4.446,4.63 l 39.99,0 c 2.46,0 4.44,-2.065 4.44,-4.63 l 0,-41.68 c 0,-2.566 -1.98,-4.63 -4.442,-4.63 l -39.99,0 z m 53.32,0 c -2.46,0 -4.442,2.065 -4.442,4.63 l 0,41.68 c 0,2.565 1.98,4.63 4.443,4.63 l 39.99,0 c 2.46,0 4.442,-2.065 4.442,-4.63 l 0,-41.68 c 0,-2.566 -1.98,-4.63 -4.442,-4.63 l -39.99,0 z m 53.32,0 c -2.46,0 -4.442,2.065 -4.442,4.63 l 0,41.68 c 0,2.565 1.98,4.63 4.442,4.63 l 39.99,0 c 2.46,0 4.442,-2.065 4.442,-4.63 l 0,-41.68 c 0,-2.566 -1.985,-4.63 -4.446,-4.63 l -39.99,0 z"/>
    <path fill="#ff8989" d="M525.217 347.07h3.568v2.26l.048-.052q.022-.053.046-.08.14-.262.26-.498l.213-.473q.262-.527.573-.867.33-.342.974-.342.07 0 .142.027h.286q.047.026.094.026h.12v4.94h-1.024q-.927 0-1.26.37-.308.37-.308 1.5v8.487h-3.735V347.07zm-2.127 2.628h-3.78v-1.732q0-.843-.358-1.262-.33-.422-.76-.474h-.188q-.477.027-.88.394-.382.367-.406.998v9.303q0 1.105.38 1.683.405.55.88.63.048.026.096.026h.215q.38-.05.69-.42.33-.395.33-.975v-2.497h-1.52V351.8h5.303v10.566h-3.45v-1.5l-.095.158-.095.16q-.286.524-.784.944-.5.393-1.95.393-1.547 0-2.403-.92-.833-.944-1.165-2.075-.19-.55-.264-1.078-.07-.552-.07-.972v-9.645q0-2.47 1.592-3.786 1.618-1.312 3.544-1.39h.214q1.76 0 3.236 1.077 1.497 1.05 1.687 3.153v2.813zm-16.004-5.86h3.732v3.233h1.047v2.996h-1.045v8.175q0 .58.094.896.12.286.547.286h.073q.047-.024.118-.024h.05q.047-.026.095-.026h.07v2.994h-2.4q-1.405 0-1.905-.708-.475-.71-.475-2.103v-9.487h-1.023v-2.994h1.023v-3.235zm-5.946-.76h3.733v19.288h-3.734v-19.29zm-10.07.182h5.302l3.093 19.106h-4.117l-.332-3.366h-2.76l-.522 3.365h-3.9l3.236-19.107zm1.52 12.298h2.09l-1.022-9.433-1.068 9.435zm-2.604-18.774c-2.46 0-4.444 2.065-4.444 4.63v41.682c0 2.566 1.983 4.63 4.444 4.63h39.99c2.46 0 4.442-2.064 4.442-4.63v-41.683c0-2.565-1.98-4.63-4.443-4.63h-39.99z" style="line-height:125%;text-align:start" />
    <g fill="#ff8989">
        <rect width="22" height="22" x="138" y="172" />
        <rect width="22" height="22" x="191" y="172" rx="5" ry="5"/>
        <rect width="22" height="22" x="244" y="172" rx="5" ry="5"/>
        <rect width="22" height="22" x="316" y="228" rx="5" ry="5"/>
        <rect width="22" height="22" x="369" y="228" rx="5" ry="5"/>
        <rect width="22" height="22" x="227" y="284" rx="5" ry="5"/>
        <rect width="22" height="22" x="280" y="284" rx="5" ry="5"/>
        <rect width="22" height="22" x="333" y="284" rx="5" ry="5"/>
        <rect width="22" height="22" x="387" y="284" rx="5" ry="5"/>
        <rect width="22" height="22" x="440" y="284" rx="5" ry="5"/>
        <rect width="22" height="22" x="547" y="284" rx="5" ry="5"/>
        <rect width="22" height="22" x="600" y="284" rx="5" ry="5"/>
    </g>
    <g fill="#fea">
        <rect width="22" height="22" x="630" y="117" rx="5" ry="5"/>
        <rect width="22" height="22" x="648" y="172" rx="5" ry="5"/>
        <rect width="22" height="22" x="701" y="172" rx="5" ry="5"/>
        <rect width="22" height="22" x="612" y="228" rx="5" ry="5"/>
        <rect width="22" height="22" x="665" y="228" rx="5" ry="5"/>
        <rect width="22" height="22" x="719" y="228" rx="5" ry="5"/>
        <rect width="22" height="22" x="097" y="284" rx="5" ry="5"/>
        <rect width="22" height="22" x="577" y="284" rx="5" ry="5"/>
        <rect width="22" height="22" x="630" y="284" rx="5" ry="5"/>
        <rect width="22" height="22" x="097" y="141" rx="5" ry="5"/>
        <rect width="22" height="22" x="630" y="141" rx="5" ry="5"/>
        <rect width="22" height="22" x="701" y="197" rx="5" ry="5"/>
        <rect width="22" height="22" x="097" y="308" rx="5" ry="5"/>
        <rect width="22" height="22" x="523" y="308" rx="5" ry="5"/>
        <rect width="22" height="22" x="577" y="308" rx="5" ry="5"/>
        <rect width="22" height="22" x="630" y="308" rx="5" ry="5"/>
        <rect width="22" height="22" x="043" y="141" rx="5" ry="5"/>
        <rect width="22" height="22" x="097" y="420" rx="5" ry="5"/>
        <rect width="22" height="22" x="150" y="420" rx="5" ry="5"/>
        <rect width="22" height="22" x="203" y="420" rx="5" ry="5"/>
        <rect width="22" height="22" x="310" y="420" rx="5" ry="5"/>
        <rect width="22" height="22" x="363" y="420" rx="5" ry="5"/>
        <rect width="22" height="22" x="417" y="420" rx="5" ry="5"/>
        <rect width="22" height="22" x="470" y="420" rx="5" ry="5"/>
        <rect width="22" height="22" x="523" y="420" rx="5" ry="5"/>
        <rect width="22" height="22" x="577" y="420" rx="5" ry="5"/>
        <rect width="22" height="22" x="630" y="445" rx="5" ry="5"/>
        <rect width="22" height="22" x="630" y="420" rx="5" ry="5"/>
        <rect width="22" height="22" x="683" y="445" rx="5" ry="5"/>
        <rect width="22" height="22" x="683" y="420" rx="5" ry="5"/>
        <rect width="22" height="22" x="648" y="500" rx="5" ry="5"/>
        <rect width="22" height="22" x="648" y="476" rx="5" ry="5"/>
        <rect width="22" height="22" x="701" y="500" rx="5" ry="5"/>
        <rect width="22" height="22" x="701" y="476" rx="5" ry="5"/>
        <rect width="22" height="22" x="612" y="556" rx="5" ry="5"/>
        <rect width="22" height="22" x="612" y="531" rx="5" ry="5"/>
        <rect width="22" height="22" x="665" y="556" rx="5" ry="5"/>
        <rect width="22" height="22" x="665" y="531" rx="5" ry="5"/>
        <rect width="22" height="22" x="737" y="445" rx="5" ry="5"/>
        <rect width="22" height="22" x="737" y="420" rx="5" ry="5"/>
        <rect width="22" height="22" x="523" y="611" rx="5" ry="5"/>
        <rect width="22" height="22" x="523" y="587" rx="5" ry="5"/>
        <rect width="22" height="22" x="577" y="611" rx="5" ry="5"/>
        <rect width="22" height="22" x="577" y="587" rx="5" ry="5"/>
        <rect width="22" height="22" x="630" y="611" rx="5" ry="5"/>
        <rect width="22" height="22" x="043" y="420" rx="5" ry="5"/>
    </g>
    <g fill="none">
        <rect width="22" height="22" x="683" y="141" rx="5" ry="5"/>
        <rect width="22" height="22" x="097" y="117" rx="5" ry="5"/>
        <rect width="22" height="22" x="150" y="141" rx="5" ry="5"/>
        <rect width="22" height="22" x="150" y="117" rx="5" ry="5"/>
        <rect width="22" height="22" x="203" y="141" rx="5" ry="5"/>
        <rect width="22" height="22" x="203" y="117" rx="5" ry="5"/>
        <rect width="22" height="22" x="257" y="141" rx="5" ry="5"/>
        <rect width="22" height="22" x="257" y="117" rx="5" ry="5"/>
        <rect width="22" height="22" x="310" y="141" rx="5" ry="5"/>
        <rect width="22" height="22" x="310" y="117" rx="5" ry="5"/>
        <rect width="22" height="22" x="363" y="141" rx="5" ry="5"/>
        <rect width="22" height="22" x="363" y="117" rx="5" ry="5"/>
        <rect width="22" height="22" x="417" y="141" rx="5" ry="5"/>
        <rect width="22" height="22" x="417" y="117" rx="5" ry="5"/>
        <rect width="22" height="22" x="470" y="141" rx="5" ry="5"/>
        <rect width="22" height="22" x="470" y="117" rx="5" ry="5"/>
        <rect width="22" height="22" x="523" y="141" rx="5" ry="5"/>
        <rect width="22" height="22" x="523" y="117" rx="5" ry="5"/>
        <rect width="22" height="22" x="577" y="141" rx="5" ry="5"/>
        <rect width="22" height="22" x="577" y="117" rx="5" ry="5"/>
        <rect width="22" height="22" x="683" y="117" rx="5" ry="5"/>
        <rect width="22" height="22" x="115" y="172" rx="5" ry="5"/>
        <rect width="22" height="22" x="168" y="172" rx="5" ry="5"/>
        <rect width="22" height="22" x="221" y="172" rx="5" ry="5"/>
        <rect width="22" height="22" x="274" y="172" rx="5" ry="5"/>
        <rect width="22" height="22" x="328" y="172" rx="5" ry="5"/>
        <rect width="22" height="22" x="381" y="197" rx="5" ry="5"/>
        <rect width="22" height="22" x="381" y="172" rx="5" ry="5"/>
        <rect width="22" height="22" x="434" y="172" rx="5" ry="5"/>
        <rect width="22" height="22" x="488" y="172" rx="5" ry="5"/>
        <rect width="22" height="22" x="541" y="172" rx="5" ry="5"/>
        <rect width="22" height="22" x="594" y="172" rx="5" ry="5"/>
        <rect width="22" height="22" x="648" y="197" rx="5" ry="5"/>
        <rect width="22" height="22" x="132" y="228" rx="5" ry="5"/>
        <rect width="22" height="22" x="186" y="228" rx="5" ry="5"/>
        <rect width="22" height="22" x="239" y="228" rx="5" ry="5"/>
        <rect width="22" height="22" x="292" y="228" rx="5" ry="5"/>
        <rect width="22" height="22" x="346" y="228" rx="5" ry="5"/>
        <rect width="22" height="22" x="399" y="228" rx="5" ry="5"/>
        <rect width="22" height="22" x="452" y="228" rx="5" ry="5"/>
        <rect width="22" height="22" x="506" y="228" rx="5" ry="5"/>
        <rect width="22" height="22" x="559" y="228" rx="5" ry="5"/>
        <rect width="22" height="22" x="612" y="252" rx="5" ry="5"/>
        <rect width="22" height="22" x="665" y="252" rx="5" ry="5"/>
        <rect width="22" height="22" x="719" y="252" rx="5" ry="5"/>
        <rect width="22" height="22" x="150" y="308" rx="5" ry="5"/>
        <rect width="22" height="22" x="150" y="284" rx="5" ry="5"/>
        <rect width="22" height="22" x="203" y="284" rx="5" ry="5"/>
        <rect width="22" height="22" x="257" y="284" rx="5" ry="5"/>
        <rect width="22" height="22" x="310" y="284" rx="5" ry="5"/>
        <rect width="22" height="22" x="363" y="284" rx="5" ry="5"/>
        <rect width="22" height="22" x="417" y="284" rx="5" ry="5"/>
        <rect width="22" height="22" x="470" y="284" rx="5" ry="5"/>
        <rect width="22" height="22" x="043" y="117" rx="5" ry="5"/>
        <rect width="22" height="22" x="097" y="445" rx="5" ry="5"/>
        <rect width="22" height="22" x="150" y="445" rx="5" ry="5"/>
        <rect width="22" height="22" x="203" y="445" rx="5" ry="5"/>
        <rect width="22" height="22" x="257" y="445" rx="5" ry="5"/>
        <rect width="22" height="22" x="257" y="420" rx="5" ry="5"/>
        <rect width="22" height="22" x="310" y="445" rx="5" ry="5"/>
        <rect width="22" height="22" x="363" y="445" rx="5" ry="5"/>
        <rect width="22" height="22" x="417" y="445" rx="5" ry="5"/>
        <rect width="22" height="22" x="470" y="445" rx="5" ry="5"/>
        <rect width="22" height="22" x="523" y="445" rx="5" ry="5"/>
        <rect width="22" height="22" x="577" y="445" rx="5" ry="5"/>
        <rect width="22" height="22" x="541" y="476" rx="5" ry="5"/>
        <rect width="22" height="22" x="594" y="476" rx="5" ry="5"/>
        <rect width="22" height="22" x="506" y="531" rx="5" ry="5"/>
        <rect width="22" height="22" x="559" y="531" rx="5" ry="5"/>
        <rect width="22" height="22" x="043" y="445" rx="5" ry="5"/>
        <rect width="22" height="22" x="115" y="476" rx="5" ry="5"/>
        <rect width="22" height="22" x="168" y="476" rx="5" ry="5"/>
        <rect width="22" height="22" x="221" y="476" rx="5" ry="5"/>
        <rect width="22" height="22" x="274" y="476" rx="5" ry="5"/>
        <rect width="22" height="22" x="328" y="476" rx="5" ry="5"/>
        <rect width="22" height="22" x="381" y="476" rx="5" ry="5"/>
        <rect width="22" height="22" x="434" y="476" rx="5" ry="5"/>
        <rect width="22" height="22" x="488" y="476" rx="5" ry="5"/>
        <rect width="22" height="22" x="132" y="531" rx="5" ry="5"/>
        <rect width="22" height="22" x="186" y="531" rx="5" ry="5"/>
        <rect width="22" height="22" x="239" y="531" rx="5" ry="5"/>
        <rect width="22" height="22" x="292" y="531" rx="5" ry="5"/>
        <rect width="22" height="22" x="346" y="531" rx="5" ry="5"/>
        <rect width="22" height="22" x="399" y="531" rx="5" ry="5"/>
        <rect width="22" height="22" x="452" y="531" rx="5" ry="5"/>
        <rect width="22" height="22" x="506" y="531" rx="5" ry="5"/>
        <rect width="22" height="22" x="150" y="587" rx="5" ry="5"/>
        <rect width="22" height="22" x="203" y="587" rx="5" ry="5"/>
        <rect width="22" height="22" x="257" y="587" rx="5" ry="5"/>
        <rect width="22" height="22" x="310" y="587" rx="5" ry="5"/>
        <rect width="22" height="22" x="363" y="587" rx="5" ry="5"/>
        <rect width="22" height="22" x="417" y="587" rx="5" ry="5"/>
        <rect width="22" height="22" x="470" y="587" rx="5" ry="5"/>
    </g>

    <g text-anchor="middle" class="l">
        <g>
            <text y="135" x="55">°</text>
            <text y="135" x="107">1</text>
            <text y="135" x="160">2</text>
            <text y="135" x="214">3</text>
            <text y="135" x="268">4</text>
            <text y="135" x="320">5</text>
            <text y="135" x="374">6</text>
            <text y="135" x="427">7</text>
            <text y="135" x="480">8</text>
            <text y="135" x="535">9</text>
            <text y="135" x="587">0</text>
            <text y="135" x="640">%</text>
            <text y="135" x="694">ˇ</text>
        </g>
        <g>
            <text y="157" x="55">;</text>
            <text y="157" x="107">+</text>
            <text y="157" x="160">ě</text>
            <text y="157" x="214">š</text>
            <text y="157" x="268">č</text>
            <text y="157" x="320">ř</text>
            <text y="157" x="374">ž</text>
            <text y="157" x="427">ý</text>
            <text y="157" x="480">á</text>
            <text y="157" x="535">í</text>
            <text y="157" x="587">é</text>
            <text y="157" x="640">=</text>
            <text y="157" x="694">´</text>
        </g>
        <g>
            <text y="189" x="125">Q</text>
            <text y="189" x="178">W</text>
            <text y="189" x="232">E</text>
            <text y="189" x="285">R</text>
            <text y="189" x="339">T</text>
            <text y="189" x="392">Z</text>
            <text y="189" x="445">U</text>
            <text y="189" x="499">I</text>
            <text y="189" x="552">O</text>
            <text y="189" x="605">P</text>
            <text y="189" x="659">/</text>
            <text y="189" x="712">(</text>

            <text y="189" x="150">\</text>
            <text y="189" x="203">|</text>
            <text y="189" x="256">€</text>

        </g>
        <g>
            <text y="213" x="392" fill="#ccc">Y</text>
            <text y="213" x="659">ú</text>
            <text y="213" x="712">)</text>
        </g>
        <g>
            <text y="246" x="143">A</text>
            <text y="246" x="196">S</text>
            <text y="246" x="250">D</text>
            <text y="246" x="303">F</text>
            <text y="246" x="356">G</text>
            <text y="246" x="410">H</text>
            <text y="246" x="463">J</text>
            <text y="246" x="516">K</text>
            <text y="246" x="570">L</text>
            <text y="246" x="623">&quot;</text>
            <text y="246" x="677">!</text>
            <text y="246" x="730">&apos;</text>

            <text y="244" x="328">[</text>
            <text y="244" x="381">]</text>

        </g>
        <g>
            <text y="268" x="623">ů</text>
            <text y="268" x="677">§</text>
            <text y="268" x="730">¨</text>
        </g>
        <g>
            <text y="300" x="108">|</text>
            <text y="300" x="161">Y</text>
            <text y="300" x="215">X</text>
            <text y="300" x="268">C</text>
            <text y="300" x="321">V</text>
            <text y="300" x="375">B</text>
            <text y="300" x="428">N</text>
            <text y="300" x="481">M</text>
            <text y="300" x="535">?</text>
            <text y="300" x="588">#</text>
            <text y="300" x="641">:</text>


            <text y="300" x="240">&amp;</text>
            <text y="300" x="293">@</text>
            <text y="299" x="346">{</text>
            <text y="299" x="400">}</text>
            <text y="300" x="558">&lt;</text>
            <text y="300" x="612">&gt;</text>
            <text y="300" x="666">_</text>
        </g>
        <g>
            <text y="324" x="109">\</text>
            <text y="324" x="161" fill="#ccc">Z</text>
            <text y="324" x="535">,</text>
            <text y="324" x="588">.</text>
            <text y="324" x="641">-</text>
        </g>
        <g>
            <text y="436" x="55">~</text>
            <text y="436" x="107">!</text>
            <text y="436" x="160">@</text>
            <text y="436" x="214">#</text>
            <text y="436" x="268">$</text>
            <text y="436" x="320">%</text>
            <text y="436" x="374">^</text>
            <text y="436" x="427">&amp;</text>
            <text y="436" x="480">*</text>
            <text y="436" x="535">(</text>
            <text y="436" x="587">)</text>
            <text y="436" x="640">_</text>
            <text y="436" x="694">+</text>
            <text y="436" x="748">|</text>
        </g>
        <g>
            <text y="462" x="55">`</text>
            <text y="462" x="107">1</text>
            <text y="462" x="160">2</text>
            <text y="462" x="214">3</text>
            <text y="462" x="268">4</text>
            <text y="462" x="320">5</text>
            <text y="462" x="374">6</text>
            <text y="462" x="427">7</text>
            <text y="462" x="480">8</text>
            <text y="462" x="535">9</text>
            <text y="462" x="587">0</text>
            <text y="462" x="640">-</text>
            <text y="462" x="694">=</text>
            <text y="462" x="748">\</text>
        </g>
        <g>
            <text y="492" x="125">Q</text>
            <text y="492" x="178">W</text>
            <text y="492" x="232">E</text>
            <text y="492" x="285">R</text>
            <text y="492" x="339">T</text>
            <text y="492" x="392">Y</text>
            <text y="492" x="445">U</text>
            <text y="492" x="499">I</text>
            <text y="492" x="552">O</text>
            <text y="492" x="605">P</text>
            <text y="492" x="659">{</text>
            <text y="492" x="712">}</text>
        </g>
        <g>
            <text y="515" x="659">[</text>
            <text y="515" x="712">]</text>
        </g>
        <g>
            <text y="549" x="143">A</text>
            <text y="549" x="196">S</text>
            <text y="549" x="250">D</text>
            <text y="549" x="303">F</text>
            <text y="549" x="356">G</text>
            <text y="549" x="410">H</text>
            <text y="549" x="463">J</text>
            <text y="549" x="516">K</text>
            <text y="549" x="570">L</text>
            <text y="549" x="623">:</text>
            <text y="549" x="677">&quot;</text>
        </g>
        <g>
            <text y="572" x="623">;</text>
            <text y="572" x="677">&apos;</text>
        </g>
        <g>
            <text y="604" x="161">Z</text>
            <text y="604" x="215">X</text>
            <text y="604" x="268">C</text>
            <text y="604" x="321">V</text>
            <text y="604" x="375">B</text>
            <text y="604" x="428">N</text>
            <text y="604" x="481">M</text>
            <text y="604" x="535">&lt;</text>
            <text y="604" x="588">&gt;</text>
            <text y="604" x="641">?</text>
        </g>
        <g>
            <text y="628" x="535">,</text>
            <text y="628" x="588">.</text>
            <text y="628" x="641">/</text>
        </g>
    </g>

    <g>
        <g fill="#cecece">
            <rect width="18" height="18" y="126" x="884" rx="5" ry="5"/>
            <rect width="18" height="18" y="146" x="884" rx="5" ry="5"/>
            <rect width="18" height="18" y="166" x="884" rx="5" ry="5"/>
            <rect width="18" height="18" y="186" x="884" rx="5" ry="5"/>
            <rect width="18" height="18" y="206" x="884" rx="5" ry="5"/>
            <rect width="18" height="18" y="226" x="884" rx="5" ry="5"/>
            <rect width="18" height="18" y="246" x="884" rx="5" ry="5"/>
            <rect width="18" height="18" y="266" x="884" rx="5" ry="5"/>
            <rect width="18" height="18" y="286" x="864" rx="5" ry="5"/>
            <rect width="18" height="18" y="286" x="884" rx="5" ry="5"/>
            <rect width="18" height="18" y="306" x="884" rx="5" ry="5"/>
            <rect width="18" height="18" y="326" x="884" rx="5" ry="5"/>
            <rect width="18" height="18" y="346" x="884" rx="5" ry="5"/>
            <rect width="18" height="18" y="366" x="884" rx="5" ry="5"/>
            <rect width="18" height="18" y="386" x="884" rx="5" ry="5"/>
            <rect width="18" height="18" y="406" x="884" rx="5" ry="5"/>
            <rect width="18" height="18" y="426" x="884" rx="5" ry="5"/>
            <rect width="18" height="18" y="446" x="884" rx="5" ry="5"/>
            <rect width="18" height="18" y="466" x="884" rx="5" ry="5"/>
            <rect width="18" height="18" y="486" x="884" rx="5" ry="5"/>
            <rect width="18" height="18" y="506" x="864" rx="5" ry="5"/>
            <rect width="18" height="18" y="506" x="884" rx="5" ry="5"/>
            <rect width="18" height="18" y="526" x="864" rx="5" ry="5"/>
            <rect width="18" height="18" y="526" x="884" rx="5" ry="5"/>
            <rect width="18" height="18" y="546" x="864" rx="5" ry="5"/>
            <rect width="18" height="18" y="546" x="884" rx="5" ry="5"/>
            <rect width="18" height="18" y="566" x="864" rx="5" ry="5"/>
            <rect width="18" height="18" y="566" x="884" rx="5" ry="5"/>
            <rect width="18" height="18" y="586" x="884" rx="5" ry="5"/>
        </g>

        <text x="905" y="140" font-size="14">
           <tspan x="905">plus</tspan>
            <tspan x="905" dy="20">hvězdička</tspan>
            <tspan x="905" dy="20">minus</tspan>
            <tspan x="905" dy="20">lomítko</tspan>
            <tspan x="905" dy="20">procenta</tspan>
            <tspan x="905" dy="20">zavináč</tspan>
            <tspan x="905" dy="20">rovná se</tspan>
            <tspan x="905" dy="20">vykřičník</tspan>
            <tspan x="905" dy="20">uvozovky</tspan>
            <tspan x="905" dy="20">zpětné lomítko</tspan>
            <tspan x="905" dy="20">čárka</tspan>
            <tspan x="905" dy="20">tečka</tspan>
            <tspan x="905" dy="20">dvojtečka</tspan>
            <tspan x="905" dy="20">středník</tspan>
            <tspan x="905" dy="20">mřížka</tspan>
            <tspan x="905" dy="20">ampersand</tspan>
            <tspan x="905" dy="20">svislítko</tspan>
            <tspan x="905" dy="20">stříška</tspan>
            <tspan x="905" dy="20">tilda</tspan>
            <tspan x="905" dy="20">závorky</tspan>
            <tspan x="905" dy="20">složené závorky</tspan>
            <tspan x="905" dy="20">hranaté závorky</tspan>
            <tspan x="905" dy="20">ostré závorky</tspan>
            <tspan x="905" dy="20">podtržítko</tspan>
        </text>

        <text x="890" y="139" font-size="14" text-anchor="middle">
            <tspan x="895">+</tspan>
            <tspan x="895" dy="20">*</tspan>
            <tspan x="895" dy="20">-</tspan>
            <tspan x="895" dy="20">/</tspan>
            <tspan x="895" dy="20">%</tspan>
            <tspan x="895" dy="20">@</tspan>
            <tspan x="895" dy="20">=</tspan>
            <tspan x="895" dy="20">!</tspan>
            <tspan x="885" dy="20">'</tspan>
            <tspan dx="16" dy="0">&quot;</tspan>
            <tspan x="895" dy="20">\</tspan>
            <tspan x="895" dy="20">,</tspan>
            <tspan x="895" dy="20">.</tspan>
            <tspan x="895" dy="20">:</tspan>
            <tspan x="895" dy="20">;</tspan>
            <tspan x="895" dy="20">#</tspan>
            <tspan x="895" dy="20">&amp;</tspan>
            <tspan x="895" dy="20">|</tspan>
            <tspan x="895" dy="20">^</tspan>
            <tspan x="895" dy="20">~</tspan>
            <tspan x="885" dy="20">(</tspan>
            <tspan dx="16" dy="0">)</tspan>
            <tspan x="885" dy="20">{</tspan>
            <tspan dx="16" dy="0">}</tspan>
            <tspan x="885" dy="20">[</tspan>
            <tspan dx="16" dy="0">]</tspan>
            <tspan x="885" dy="20">&lt;</tspan>
            <tspan dx="16" dy="0">&gt;</tspan>
            <tspan x="893" dy="20">_</tspan>
        </text>
    </g>

    <g>
        <g>
            <path fill="#aab2ab" d="M658.69 645.31l31.577.057c.44 0 .835-.066.835.918l-.04 10.84h-33.17v-10.88c0-.485.045-.935.798-.935z"/>
            <path fill="#fff" d="M667.36 650.855c0 2.186-1.7 3.958-3.798 3.96-2.098.003-3.8-1.77-3.8-3.955v-.005c0-2.186 1.697-3.96 3.796-3.96 2.097 0 3.798 1.77 3.8 3.957v.003z"/>
            <path d="M666.647 647.63c.842.88 1.263 1.953 1.263 3.224 0 1.274-.412 2.336-1.24 3.192-.878.9-1.915 1.35-3.115 1.35-1.183 0-2.203-.45-3.06-1.34-.858-.895-1.285-1.962-1.285-3.203 0-1.24.43-2.317 1.284-3.223.837-.88 1.856-1.32 3.06-1.32 1.222 0 2.252.44 3.093 1.32zm-5.586.59c-.71.75-1.066 1.63-1.066 2.637 0 1.006.353 1.875 1.057 2.61.705.735 1.544 1.102 2.518 1.102.973 0 1.82-.373 2.54-1.115.682-.688 1.023-1.556 1.023-2.6 0-1.04-.346-1.92-1.04-2.643-.693-.722-1.535-1.084-2.522-1.084-.988 0-1.824.362-2.506 1.09zm1.875 2.193c-.11-.247-.272-.37-.488-.37-.386 0-.576.267-.576.807s.193.807.577.807c.253 0 .434-.13.543-.393l.53.295c-.252.47-.633.703-1.14.703-.392 0-.705-.126-.94-.375-.236-.25-.354-.598-.354-1.036 0-.432.12-.775.364-1.03.244-.25.547-.377.91-.377.535 0 .92.218 1.152.66l-.577.307zm2.504 0c-.11-.247-.27-.37-.48-.37-.39 0-.587.267-.587.807s.196.807.587.807c.253 0 .432-.13.533-.393l.544.295c-.253.47-.634.703-1.14.703-.392 0-.706-.126-.94-.375-.235-.25-.352-.598-.352-1.036 0-.432.118-.775.357-1.03.24-.25.543-.377.914-.377.534 0 .918.218 1.15.66l-.59.307z"/>
            <path d="M690.542 645.17h-32.175c-.345 0-.625.295-.625.655v11.394c0 .08.062.145.14.145h33.145c.077 0 .143-.066.143-.147v-11.396c0-.36-.282-.654-.628-.654zm-32.175.296h32.175c.19 0 .344.16.344.358v7.91h-23c-.84 1.588-2.464 2.667-4.33 2.667-1.863 0-3.488-1.077-4.33-2.664h-1.203v-7.91c0-.198.154-.36.344-.36z"/>
            <path fill="#fff" d="M681.77 656.127c.022.046.052.08.09.11.037.027.08.048.13.06.05.014.102.02.155.02.036 0 .075-.002.115-.008.04-.01.08-.02.116-.04.035-.017.066-.04.09-.073.024-.03.035-.07.035-.12 0-.05-.014-.09-.046-.126-.033-.03-.074-.056-.126-.08-.05-.02-.11-.04-.176-.056-.063-.015-.13-.035-.197-.053-.068-.02-.135-.04-.2-.066-.066-.025-.125-.06-.176-.1-.053-.042-.095-.092-.127-.156-.03-.062-.046-.138-.046-.225 0-.1.022-.184.06-.257.04-.073.094-.133.16-.182.066-.05.14-.084.22-.107.084-.024.165-.036.25-.036.095 0 .186.013.276.036.088.022.168.056.236.108.07.05.122.114.164.192.04.078.06.172.06.285h-.394c-.003-.057-.014-.102-.033-.14-.022-.04-.047-.068-.08-.09-.032-.023-.07-.038-.11-.046-.043-.01-.09-.015-.14-.015-.032 0-.065.003-.098.01-.03.008-.06.02-.09.038-.024.017-.046.04-.065.066-.014.028-.023.06-.023.103 0 .038.008.07.022.093.012.023.04.044.08.064.04.02.096.04.168.058l.28.077.142.04c.062.02.12.05.182.09.06.04.112.096.156.165.044.068.066.158.066.263 0 .09-.016.173-.05.248-.032.076-.08.14-.145.195-.067.056-.146.1-.24.13-.096.03-.207.045-.333.045-.1 0-.2-.013-.297-.04-.095-.024-.18-.065-.253-.12-.072-.058-.13-.126-.174-.214-.044-.085-.063-.19-.062-.306h.395c0 .064.01.12.032.164zm2.285-1.447l.692 1.923h-.422l-.14-.43h-.69l-.143.43h-.407l.697-1.923h.416zm.025 1.178l-.232-.705h-.006l-.24.704h.478zm-9.626-1.178c.088 0 .168.008.242.023.07.017.132.044.185.08.053.037.094.086.123.147.027.06.04.138.04.226 0 .096-.02.178-.06.24-.045.066-.107.12-.188.162.113.034.198.09.253.18.057.083.086.187.086.306 0 .1-.018.184-.055.252-.037.073-.086.13-.147.175-.06.048-.132.08-.21.1-.076.02-.158.034-.24.034h-.897v-1.923h.87zm-.052.777c.07 0 .132-.02.176-.054.048-.037.07-.094.07-.176 0-.046-.006-.08-.02-.11-.018-.03-.038-.05-.064-.066-.026-.014-.055-.026-.088-.033-.036-.006-.07-.01-.106-.01h-.38v.448h.412zm.022.814c.04 0 .077 0 .114-.01.037-.007.068-.022.096-.04.03-.02.05-.045.066-.076.018-.032.026-.074.026-.124 0-.1-.027-.17-.08-.212-.053-.043-.123-.063-.21-.063h-.444v.527h.435zm.78-1.59h.455l.43.758.43-.757h.45l-.68 1.185v.74h-.408v-.75l-.678-1.174zm11.064-5.16c0 1.7-1.32 3.076-2.948 3.076-1.63.002-2.95-1.374-2.95-3.07v-.006c-.002-1.698 1.318-3.074 2.946-3.074 1.63-.003 2.95 1.373 2.95 3.07v.005z"/>
            <path d="M683.296 646.154c-.894 0-1.65.326-2.27.975-.637.673-.955 1.47-.955 2.39 0 .92.32 1.712.956 2.375.635.66 1.394.992 2.272.992.892 0 1.662-.333 2.314-1.002.615-.634.923-1.423.923-2.364 0-.943-.314-1.74-.94-2.39-.624-.65-1.39-.976-2.295-.976zm.01.608c.732 0 1.355.268 1.868.807.517.53.774 1.182.774 1.95 0 .775-.253 1.417-.76 1.927-.533.55-1.16.826-1.883.826-.722 0-1.345-.273-1.868-.818-.522-.543-.78-1.188-.78-1.935 0-.744.263-1.396.79-1.95.507-.54 1.126-.81 1.86-.81z"/>
            <path d="M681.865 649.045c.13-.846.7-1.298 1.418-1.298 1.03 0 1.66.78 1.66 1.82 0 1.014-.67 1.802-1.676 1.802-.693 0-1.313-.447-1.426-1.32h.816c.022.454.306.614.71.614.458 0 .756-.445.756-1.124 0-.71-.257-1.09-.74-1.09-.355 0-.66.135-.727.597l.238-.002-.64.666-.64-.664h.255z"/>
            <ellipse cx="675.39" cy="649.59" fill="#fff" rx="2.991" ry="3.118"/>
            <path d="M676.256 648.688c0-.12-.093-.218-.208-.218h-1.32c-.117 0-.21.097-.21.218v1.377h.368v1.63h1.002v-1.63h.368v-1.377z"/>
            <ellipse cx="675.387" cy="647.818" rx=".452" ry=".471"/>
            <path fill-rule="evenodd" d="M675.383 646.155c-.895 0-1.653.325-2.272.976-.635.674-.953 1.47-.953 2.39 0 .92.318 1.712.954 2.374.637.663 1.395.993 2.274.993.89 0 1.66-.333 2.312-1 .614-.635.922-1.423.922-2.366 0-.942-.313-1.738-.938-2.39-.625-.65-1.39-.975-2.296-.975zm.008.606c.734 0 1.356.27 1.868.808.518.534.778 1.184.778 1.953 0 .775-.254 1.418-.76 1.928-.534.55-1.162.825-1.884.825-.723 0-1.345-.272-1.868-.816-.523-.544-.785-1.19-.785-1.936 0-.745.264-1.396.792-1.95.506-.54 1.126-.81 1.86-.81z" clip-rule="evenodd"/>
        </g>
        <g>
            <text x="653" y="657.89502" font-size="6" style="line-height:125%;text-align:end" text-anchor="end">Odvozeno z klávesnice pro Python od Petra Viktorina (https://github.com/encukou/cheatsheets) Šířeno pod licencí CC BY-SA: http://creativecommons.org/licenses/by-sa/4.0/</text>
            <text x="653" y="649.93103" font-size="6" style="line-height:125%;text-align:end" text-anchor="end">Umístění znaků potřebných pro psaní HTML a CSS na typické české (s AltGr) a anglické klávesnici. Pozor, každá klávesnice je jiná, a každý operační systém používá trošku jiné rozložení!</text>
        </g>
    </g>
    <text x="42.114" y="102" font-size="26" style="line-height:125%;text-align:start">česká klávesnice</text>
    <text x="42.114" y="405" font-size="26" style="line-height:125%;text-align:start">anglická (americká) klávesnice</text>
</svg>
